#!OML:ASF F:\VICON\USERDATA\INSTALL\rory3\rory3.ASF
:FULLY-SPECIFIED
:DEGREES
203
root 0.5643654286467905 17.81644409778234 40.70881776092393 2.2617373458093177 1.5046297551967598 0.010112398902696995
lfemur -14.516401718619084 0.8424726464733091 -21.023540562744092
ltibia 51.67323122146531
lfoot 4.522782962766724 -10.88865938398695
ltoes -10.722696883769064
rfemur -17.892818529451464 3.6312378221039476 28.236345670325004
rtibia 51.85213938635036
rfoot -0.833845780128556 -6.199768686404993
rtoes -5.704496052407185
lowerback 13.41667985449244 0.07479809512085434 0.31931648435098836
upperback -0.4882508565687178 0.9068322774001973 1.2799182913655223
thorax -8.284106425754114 0.7408294713082488 1.069631596286086
lowerneck -18.882061157541827 -3.6712423790735267 -2.2959054497951765
upperneck 14.05649221399405 -4.912005097917126 3.008800858604036
head 7.448137664709395 -2.401327710625284 0.7379378918631814
lclavicle 3.0724827264545893e-16 -4.3067221206564905e-16
lhumerus -45.85016654718156 -14.216228005050295 98.05160337855911
lradius 109.9902848409762
lwrist 32.332586948909615
lhand -25.969163657321097 3.1692944704427246
lfingers 7.125020000000001
lthumb 0.49134395444070683 32.94647853388989
rclavicle 3.0728743657241976e-16 -4.3064985682852227e-16
rhumerus -46.722303195456796 8.01620606360119 -96.28044961870584
rradius 103.69138412144778
rwrist -19.335408453424822
rhand -18.453473072026636 37.53529031049441
rfingers 7.125020000000001
rthumb 8.000063310123357 7.538953295277891
204
root 0.5553621239872966 17.783502520110698 38.91530620664404 2.0773455743549945 1.2423604802310284 -0.15402658520897172
lfemur -13.58669315841352 0.9125785316559055 -20.849242225722044
ltibia 52.43658788014406
lfoot 3.234701845554296 -11.222426975019584
ltoes -10.444503468471899
rfemur -17.750776313424204 3.602330220536963 28.093204121808807
rtibia 51.454598534913345
rfoot -0.674175720626791 -6.450770668797712
rtoes -4.881075931416907
lowerback 13.28331754316611 -0.036137545451004116 0.12957329664463368
upperback -0.5320916921103476 0.6460362379282734 1.204574183677931
thorax -8.264008311002485 0.7931782408678386 1.216460327048279
lowerneck -18.89129949485893 -3.6582157628393013 -2.269521728833805
upperneck 13.993002605468888 -4.908344216083102 2.9828297781567303
head 7.455086174028445 -2.3670175751478695 0.7444512490918652
lclavicle 3.0724827264545893e-16 -4.3067221206564905e-16
lhumerus -46.407303495414745 -14.406017361026558 97.91982257380576
lradius 109.78018006804811
lwrist 32.26140687721442
lhand -25.9313855150644 3.1670526853938155
lfingers 7.125020000000001
lthumb 0.5051302865226035 32.97772019147336
rclavicle 3.0728743657241976e-16 -4.3064985682852227e-16
rhumerus -46.669277614909234 8.042559325626668 -96.2457051926774
rradius 103.7279603695102
rwrist -19.368204495167934
rhand -18.490513115200848 37.47792626601506
rfingers 7.125020000000001
rthumb 7.966940793679562 7.537280290449527
205
root 0.5515323936640035 17.77992498169603 38.958896031795064 2.077996611811775 1.284393892776464 -0.15829869317438194
lfemur -15.341504738412475 0.7549013470954872 -20.995846134636544
ltibia 53.58243441596603
lfoot 1.9254854443973894 -10.713125781080896
ltoes -10.379349904882709
rfemur -20.763020083951506 3.3077245553426424 27.551314412993804
rtibia 51.56118434390613
rfoot -0.6536981257738687 -6.5755314137451615
rtoes -4.230100804416318
lowerback 13.209587868793186 -0.0765618492187754 0.10015548338970937
upperback -0.5114700726313559 0.713805002666573 1.2748137624315818
thorax -8.172617300259654 0.9415356670458144 1.5379530373733354
lowerneck -19.029561193667504 -3.778639433825377 -2.3175527718337174
upperneck 13.944383763968691 -4.91659570187594 2.929308034166194
head 7.456595556461131 -2.33132344465249 0.7517023898751598
lclavicle 3.0724827264545893e-16 -4.3067221206564905e-16
lhumerus -45.81739492714132 -14.306506479917719 97.98619618028447
lradius 109.5557359525936
lwrist 32.21696106429813
lhand -25.920589749367576 3.167017848029753
lfingers 7.125020000000001
lthumb 0.4439211001512947 32.90179303753046
rclavicle 3.0728743657241976e-16 -4.3064985682852227e-16
rhumerus -47.32486146140233 7.836734922788626 -96.29884114586571
rradius 103.74604922450268
rwrist -19.409843934819897
rhand -18.48829841033465 37.50579661957931
rfingers 7.125020000000001
rthumb 7.985407936332971 7.516728972686438
206
root 0.5488699082507755 17.76601332266099 38.826555260181266 2.0904089471172598 1.2800560875051625 -0.17123675599462884
lfemur -13.13332100586332 1.158954888091381 -20.19772465046053
ltibia 54.583864447128065
lfoot 1.9242296225764328 -9.408189307031396
ltoes -10.156459712690914
rfemur -20.73265004237899 3.1428060082414113 27.326478845550753
rtibia 52.01745197297504
rfoot -0.9275866415435253 -6.546576120201184
rtoes -2.7686272853713283
lowerback 13.04988168555349 -0.19965363978472495 -0.09038122251231995
upperback -0.4784422105056097 0.882400675423934 1.3744067042136425
thorax -8.339732650111452 0.7096801967157607 1.093381157619213
lowerneck -19.01574129937128 -3.7929351546405785 -2.3100484734043567
upperneck 13.921459418566915 -4.958413459402258 2.844866755336098
head 7.4415297782700565 -2.3328483304552146 0.7486138499282382
lclavicle 3.0724827264545893e-16 -4.3067221206564905e-16
lhumerus -45.82439031301898 -14.365172227861994 98.02251121738054
lradius 109.19468377320987
lwrist 32.18044606945203
lhand -25.856323345183373 3.2014144011260552
lfingers 7.125020000000001
lthumb 0.43156525214464075 32.89025044908958
rclavicle 3.0728743657241976e-16 -4.3064985682852227e-16
rhumerus -47.46469277550644 7.790562479445104 -96.2458221822512
rradius 103.76372220361043
rwrist -19.475371074301787
rhand -18.5239514859586 37.50376580861749
rfingers 7.125020000000001
rthumb 7.976587877510447 7.510292675135714
